<?xml version="1.0" encoding="UTF-8" standalone="no"?>
<!DOCTYPE svg PUBLIC "-//W3C//DTD SVG 1.1//EN"
 "http://www.w3.org/Graphics/SVG/1.1/DTD/svg11.dtd">
<!-- Generated by graphviz version 2.40.1 (20161225.0304)
 -->
<!-- Title: blocksr_b Pages: 1 -->
<svg width="107pt" height="188pt"
 viewBox="0.00 0.00 106.81 188.00" xmlns="http://www.w3.org/2000/svg" xmlns:xlink="http://www.w3.org/1999/xlink">
<g id="graph0" class="graph" transform="scale(1 1) rotate(0) translate(4 184)">
<title>blocksr_b</title>
<polygon fill="#ffffff" stroke="transparent" points="-4,4 -4,-184 102.8117,-184 102.8117,4 -4,4"/>
<!-- conv3x3_2 -->
<g id="node1" class="node">
<title>conv3x3_2</title>
<ellipse fill="none" stroke="#000000" cx="49.4058" cy="-162" rx="49.3119" ry="18"/>
<text text-anchor="middle" x="49.4058" y="-157.8" font-family="Times,serif" font-size="14.00" fill="#000000">conv3x3_2</text>
</g>
<!-- bn -->
<g id="node2" class="node">
<title>bn</title>
<ellipse fill="none" stroke="#000000" cx="49.4058" cy="-90" rx="27" ry="18"/>
<text text-anchor="middle" x="49.4058" y="-85.8" font-family="Times,serif" font-size="14.00" fill="#000000">bn</text>
</g>
<!-- conv3x3_2&#45;&gt;bn -->
<g id="edge1" class="edge">
<title>conv3x3_2&#45;&gt;bn</title>
<path fill="none" stroke="#000000" d="M49.4058,-143.8314C49.4058,-136.131 49.4058,-126.9743 49.4058,-118.4166"/>
<polygon fill="#000000" stroke="#000000" points="52.9059,-118.4132 49.4058,-108.4133 45.9059,-118.4133 52.9059,-118.4132"/>
</g>
<!-- relu -->
<g id="node3" class="node">
<title>relu</title>
<ellipse fill="none" stroke="#000000" cx="49.4058" cy="-18" rx="27" ry="18"/>
<text text-anchor="middle" x="49.4058" y="-13.8" font-family="Times,serif" font-size="14.00" fill="#000000">relu</text>
</g>
<!-- bn&#45;&gt;relu -->
<g id="edge2" class="edge">
<title>bn&#45;&gt;relu</title>
<path fill="none" stroke="#000000" d="M49.4058,-71.8314C49.4058,-64.131 49.4058,-54.9743 49.4058,-46.4166"/>
<polygon fill="#000000" stroke="#000000" points="52.9059,-46.4132 49.4058,-36.4133 45.9059,-46.4133 52.9059,-46.4132"/>
</g>
</g>
</svg>
