<?xml version="1.0" encoding="UTF-8" standalone="no"?>
<!DOCTYPE svg PUBLIC "-//W3C//DTD SVG 1.1//EN"
 "http://www.w3.org/Graphics/SVG/1.1/DTD/svg11.dtd">
<!-- Generated by graphviz version 2.40.1 (20161225.0304)
 -->
<!-- Title: block_c Pages: 1 -->
<svg width="89pt" height="188pt"
 viewBox="0.00 0.00 89.00 188.00" xmlns="http://www.w3.org/2000/svg" xmlns:xlink="http://www.w3.org/1999/xlink">
<g id="graph0" class="graph" transform="scale(1 1) rotate(0) translate(4 184)">
<title>block_c</title>
<polygon fill="#ffffff" stroke="transparent" points="-4,4 -4,-184 85,-184 85,4 -4,4"/>
<!-- block1 -->
<g id="node1" class="node">
<title>block1</title>
<polygon fill="none" stroke="#000000" points="81,-180 27,-180 27,-144 81,-144 81,-180"/>
<text text-anchor="middle" x="54" y="-157.8" font-family="Times,serif" font-size="14.00" fill="#000000">block</text>
</g>
<!-- block2 -->
<g id="node2" class="node">
<title>block2</title>
<polygon fill="none" stroke="#000000" points="54,-108 0,-108 0,-72 54,-72 54,-108"/>
<text text-anchor="middle" x="27" y="-85.8" font-family="Times,serif" font-size="14.00" fill="#000000">block</text>
</g>
<!-- block1&#45;&gt;block2 -->
<g id="edge1" class="edge">
<title>block1&#45;&gt;block2</title>
<path fill="none" stroke="#000000" d="M47.1868,-143.8314C44.2356,-135.9617 40.7142,-126.5712 37.445,-117.8533"/>
<polygon fill="#000000" stroke="#000000" points="40.6934,-116.5476 33.905,-108.4133 34.1391,-119.0055 40.6934,-116.5476"/>
</g>
<!-- add -->
<g id="node3" class="node">
<title>add</title>
<ellipse fill="none" stroke="#000000" cx="54" cy="-18" rx="27" ry="18"/>
<text text-anchor="middle" x="54" y="-13.8" font-family="Times,serif" font-size="14.00" fill="#000000">add</text>
</g>
<!-- block1&#45;&gt;add -->
<g id="edge3" class="edge">
<title>block1&#45;&gt;add</title>
<path fill="none" stroke="#000000" d="M57.8413,-143.6001C59.8166,-133.2025 62.0123,-119.9346 63,-108 64.3197,-92.0545 64.3197,-87.9455 63,-72 62.2945,-63.4753 60.9727,-54.2703 59.5551,-45.917"/>
<polygon fill="#000000" stroke="#000000" points="62.9689,-45.1258 57.7474,-35.9069 56.0803,-46.3698 62.9689,-45.1258"/>
</g>
<!-- block2&#45;&gt;add -->
<g id="edge2" class="edge">
<title>block2&#45;&gt;add</title>
<path fill="none" stroke="#000000" d="M33.8132,-71.8314C36.8098,-63.8406 40.3943,-54.2819 43.7057,-45.4514"/>
<polygon fill="#000000" stroke="#000000" points="47.0483,-46.5057 47.2825,-35.9134 40.494,-44.0478 47.0483,-46.5057"/>
</g>
</g>
</svg>
