<?xml version="1.0" encoding="UTF-8" standalone="no"?>
<!DOCTYPE svg PUBLIC "-//W3C//DTD SVG 1.1//EN"
 "http://www.w3.org/Graphics/SVG/1.1/DTD/svg11.dtd">
<!-- Generated by graphviz version 2.40.1 (20161225.0304)
 -->
<!-- Title: body_a Pages: 1 -->
<svg width="65pt" height="188pt"
 viewBox="0.00 0.00 65.21 188.00" xmlns="http://www.w3.org/2000/svg" xmlns:xlink="http://www.w3.org/1999/xlink">
<g id="graph0" class="graph" transform="scale(1 1) rotate(0) translate(4 184)">
<title>body_a</title>
<polygon fill="#ffffff" stroke="transparent" points="-4,4 -4,-184 61.2139,-184 61.2139,4 -4,4"/>
<!-- body -->
<g id="node1" class="node">
<title>body</title>
<polygon fill="none" stroke="#000000" points="55.6069,-180 1.6069,-180 1.6069,-144 55.6069,-144 55.6069,-180"/>
<text text-anchor="middle" x="28.6069" y="-157.8" font-family="Times,serif" font-size="14.00" fill="#000000">body</text>
</g>
<!-- blocksr -->
<g id="node2" class="node">
<title>blocksr</title>
<polygon fill="none" stroke="#000000" points="57.3212,-108 -.1073,-108 -.1073,-72 57.3212,-72 57.3212,-108"/>
<text text-anchor="middle" x="28.6069" y="-85.8" font-family="Times,serif" font-size="14.00" fill="#000000">blocksr</text>
</g>
<!-- body&#45;&gt;blocksr -->
<g id="edge1" class="edge">
<title>body&#45;&gt;blocksr</title>
<path fill="none" stroke="#000000" d="M28.6069,-143.8314C28.6069,-136.131 28.6069,-126.9743 28.6069,-118.4166"/>
<polygon fill="#000000" stroke="#000000" points="32.107,-118.4132 28.6069,-108.4133 25.107,-118.4133 32.107,-118.4132"/>
</g>
<!-- block -->
<g id="node3" class="node">
<title>block</title>
<polygon fill="none" stroke="#000000" points="55.6069,-36 1.6069,-36 1.6069,0 55.6069,0 55.6069,-36"/>
<text text-anchor="middle" x="28.6069" y="-13.8" font-family="Times,serif" font-size="14.00" fill="#000000">block</text>
</g>
<!-- blocksr&#45;&gt;block -->
<g id="edge2" class="edge">
<title>blocksr&#45;&gt;block</title>
<path fill="none" stroke="#000000" d="M28.6069,-71.8314C28.6069,-64.131 28.6069,-54.9743 28.6069,-46.4166"/>
<polygon fill="#000000" stroke="#000000" points="32.107,-46.4132 28.6069,-36.4133 25.107,-46.4133 32.107,-46.4132"/>
</g>
</g>
</svg>
