<?xml version="1.0" encoding="UTF-8" standalone="no"?>
<!DOCTYPE svg PUBLIC "-//W3C//DTD SVG 1.1//EN"
 "http://www.w3.org/Graphics/SVG/1.1/DTD/svg11.dtd">
<!-- Generated by graphviz version 2.40.1 (20161225.0304)
 -->
<!-- Title: head_b Pages: 1 -->
<svg width="73pt" height="476pt"
 viewBox="0.00 0.00 73.42 476.00" xmlns="http://www.w3.org/2000/svg" xmlns:xlink="http://www.w3.org/1999/xlink">
<g id="graph0" class="graph" transform="scale(1 1) rotate(0) translate(4 472)">
<title>head_b</title>
<polygon fill="#ffffff" stroke="transparent" points="-4,4 -4,-472 69.4155,-472 69.4155,4 -4,4"/>
<!-- pool -->
<g id="node1" class="node">
<title>pool</title>
<polygon fill="none" stroke="#000000" points="59.7077,-468 5.7077,-468 5.7077,-432 59.7077,-432 59.7077,-468"/>
<text text-anchor="middle" x="32.7077" y="-445.8" font-family="Times,serif" font-size="14.00" fill="#000000">pool</text>
</g>
<!-- flatten -->
<g id="node2" class="node">
<title>flatten</title>
<ellipse fill="none" stroke="#000000" cx="32.7077" cy="-378" rx="32.4237" ry="18"/>
<text text-anchor="middle" x="32.7077" y="-373.8" font-family="Times,serif" font-size="14.00" fill="#000000">flatten</text>
</g>
<!-- pool&#45;&gt;flatten -->
<g id="edge1" class="edge">
<title>pool&#45;&gt;flatten</title>
<path fill="none" stroke="#000000" d="M32.7077,-431.8314C32.7077,-424.131 32.7077,-414.9743 32.7077,-406.4166"/>
<polygon fill="#000000" stroke="#000000" points="36.2078,-406.4132 32.7077,-396.4133 29.2078,-406.4133 36.2078,-406.4132"/>
</g>
<!-- affine -->
<g id="node3" class="node">
<title>affine</title>
<ellipse fill="none" stroke="#000000" cx="32.7077" cy="-306" rx="30.4862" ry="18"/>
<text text-anchor="middle" x="32.7077" y="-301.8" font-family="Times,serif" font-size="14.00" fill="#000000">affine</text>
</g>
<!-- flatten&#45;&gt;affine -->
<g id="edge2" class="edge">
<title>flatten&#45;&gt;affine</title>
<path fill="none" stroke="#000000" d="M32.7077,-359.8314C32.7077,-352.131 32.7077,-342.9743 32.7077,-334.4166"/>
<polygon fill="#000000" stroke="#000000" points="36.2078,-334.4132 32.7077,-324.4133 29.2078,-334.4133 36.2078,-334.4132"/>
</g>
<!-- bn -->
<g id="node4" class="node">
<title>bn</title>
<ellipse fill="none" stroke="#000000" cx="32.7077" cy="-234" rx="27" ry="18"/>
<text text-anchor="middle" x="32.7077" y="-229.8" font-family="Times,serif" font-size="14.00" fill="#000000">bn</text>
</g>
<!-- affine&#45;&gt;bn -->
<g id="edge3" class="edge">
<title>affine&#45;&gt;bn</title>
<path fill="none" stroke="#000000" d="M32.7077,-287.8314C32.7077,-280.131 32.7077,-270.9743 32.7077,-262.4166"/>
<polygon fill="#000000" stroke="#000000" points="36.2078,-262.4132 32.7077,-252.4133 29.2078,-262.4133 36.2078,-262.4132"/>
</g>
<!-- relu -->
<g id="node5" class="node">
<title>relu</title>
<ellipse fill="none" stroke="#000000" cx="32.7077" cy="-162" rx="27" ry="18"/>
<text text-anchor="middle" x="32.7077" y="-157.8" font-family="Times,serif" font-size="14.00" fill="#000000">relu</text>
</g>
<!-- bn&#45;&gt;relu -->
<g id="edge4" class="edge">
<title>bn&#45;&gt;relu</title>
<path fill="none" stroke="#000000" d="M32.7077,-215.8314C32.7077,-208.131 32.7077,-198.9743 32.7077,-190.4166"/>
<polygon fill="#000000" stroke="#000000" points="36.2078,-190.4132 32.7077,-180.4133 29.2078,-190.4133 36.2078,-190.4132"/>
</g>
<!-- logits -->
<g id="node6" class="node">
<title>logits</title>
<ellipse fill="none" stroke="#000000" cx="32.7077" cy="-90" rx="29.5275" ry="18"/>
<text text-anchor="middle" x="32.7077" y="-85.8" font-family="Times,serif" font-size="14.00" fill="#000000">logits</text>
</g>
<!-- relu&#45;&gt;logits -->
<g id="edge5" class="edge">
<title>relu&#45;&gt;logits</title>
<path fill="none" stroke="#000000" d="M32.7077,-143.8314C32.7077,-136.131 32.7077,-126.9743 32.7077,-118.4166"/>
<polygon fill="#000000" stroke="#000000" points="36.2078,-118.4132 32.7077,-108.4133 29.2078,-118.4133 36.2078,-118.4132"/>
</g>
<!-- output -->
<g id="node7" class="node">
<title>output</title>
<ellipse fill="none" stroke="#000000" cx="32.7077" cy="-18" rx="32.9168" ry="18"/>
<text text-anchor="middle" x="32.7077" y="-13.8" font-family="Times,serif" font-size="14.00" fill="#000000">output</text>
</g>
<!-- logits&#45;&gt;output -->
<g id="edge6" class="edge">
<title>logits&#45;&gt;output</title>
<path fill="none" stroke="#000000" d="M32.7077,-71.8314C32.7077,-64.131 32.7077,-54.9743 32.7077,-46.4166"/>
<polygon fill="#000000" stroke="#000000" points="36.2078,-46.4132 32.7077,-36.4133 29.2078,-46.4133 36.2078,-46.4132"/>
</g>
</g>
</svg>
